<svg xmlns="http://www.w3.org/2000/svg" xmlns:xlink="http://www.w3.org/1999/xlink" width="500" zoomAndPan="magnify" viewBox="0 0 375 374.999991" height="500" preserveAspectRatio="xMidYMid meet" version="1.0"><defs><g/><clipPath id="ea5c523ee4"><rect x="0" width="137" y="0" height="194"/></clipPath><clipPath id="aabc697833"><path d="M 2 0.839844 L 155 0.839844 L 155 168 L 2 168 Z M 2 0.839844 " clip-rule="nonzero"/></clipPath><clipPath id="eef7631202"><rect x="0" width="157" y="0" height="205"/></clipPath><clipPath id="45d268beca"><rect x="0" width="147" y="0" height="23"/></clipPath></defs><g transform="matrix(1, 0, 0, 1, 139, 93)"><g clip-path="url(#ea5c523ee4)"><g fill="#344e41" fill-opacity="1"><g transform="translate(0.721505, 147.011814)"><g><path d="M 5.78125 -137.984375 L 5.78125 -140.484375 L 60.703125 -140.484375 C 67.898438 -140.484375 74.9375 -140.128906 81.8125 -139.421875 C 88.6875 -138.722656 94.882812 -137.21875 100.40625 -134.90625 C 105.925781 -132.59375 110.359375 -129.085938 113.703125 -124.390625 C 117.046875 -119.703125 118.71875 -113.441406 118.71875 -105.609375 C 118.71875 -95.710938 115.859375 -87.773438 110.140625 -81.796875 C 104.421875 -75.828125 97 -72.78125 87.875 -72.65625 L 87.875 -71.890625 C 100.082031 -71.890625 109.71875 -69.09375 116.78125 -63.5 C 123.851562 -57.914062 127.390625 -50.300781 127.390625 -40.65625 C 127.390625 -36.414062 126.710938 -31.953125 125.359375 -27.265625 C 124.015625 -22.578125 121.378906 -18.144531 117.453125 -13.96875 C 113.535156 -9.789062 107.882812 -6.414062 100.5 -3.84375 C 93.113281 -1.28125 83.382812 0 71.3125 0 L 5.78125 0 L 5.78125 -2.5 C 10.40625 -2.5 13.773438 -3.078125 15.890625 -4.234375 C 18.015625 -5.390625 19.078125 -8.15625 19.078125 -12.53125 L 19.078125 -128.34375 C 18.953125 -132.457031 17.828125 -135.09375 15.703125 -136.25 C 13.585938 -137.40625 10.28125 -137.984375 5.78125 -137.984375 Z M 64.375 -71.109375 L 40.46875 -71.109375 L 40.46875 -12.53125 C 40.46875 -9.570312 40.976562 -7.351562 42 -5.875 C 43.03125 -4.394531 45.023438 -3.429688 47.984375 -2.984375 C 50.941406 -2.535156 55.3125 -2.3125 61.09375 -2.3125 C 75.613281 -2.3125 86.4375 -5.425781 93.5625 -11.65625 C 100.695312 -17.882812 104.265625 -27.679688 104.265625 -41.046875 C 104.265625 -49.140625 102.492188 -55.367188 98.953125 -59.734375 C 95.421875 -64.109375 90.632812 -67.097656 84.59375 -68.703125 C 78.5625 -70.304688 71.820312 -71.109375 64.375 -71.109375 Z M 40.46875 -128.34375 L 40.46875 -73.421875 L 60.90625 -73.421875 C 67.707031 -73.421875 73.867188 -74.253906 79.390625 -75.921875 C 84.921875 -77.597656 89.320312 -80.75 92.59375 -85.375 C 95.875 -90 97.515625 -96.742188 97.515625 -105.609375 C 97.515625 -116.140625 94.816406 -124.164062 89.421875 -129.6875 C 84.023438 -135.21875 75.738281 -137.984375 64.5625 -137.984375 C 58.007812 -137.984375 53 -137.789062 49.53125 -137.40625 C 46.0625 -137.019531 43.679688 -136.148438 42.390625 -134.796875 C 41.109375 -133.453125 40.46875 -131.300781 40.46875 -128.34375 Z M 40.46875 -128.34375 "/></g></g></g></g></g><g transform="matrix(1, 0, 0, 1, 92, 81)"><g clip-path="url(#eef7631202)"><g clip-path="url(#aabc697833)"><g fill="#ffffff" fill-opacity="1"><g transform="translate(7.630756, 157.150187)"><g><path d="M 4.953125 -154.605469 L 48.214844 -154.605469 L 127.933594 -43.363281 L 119.679688 -37.449219 L 109.523438 -37.429688 L 109.328125 -131.152344 C 109.328125 -132.589844 109.25 -133.511719 109.097656 -133.921875 C 109.230469 -133.5625 109.476562 -133.171875 109.835938 -132.757812 C 110.480469 -132.007812 111.285156 -131.441406 112.242188 -131.058594 C 111.140625 -131.496094 108.929688 -131.71875 105.613281 -131.71875 L 95.457031 -131.71875 L 95.457031 -154.605469 L 146.28125 -154.605469 L 146.28125 -131.71875 L 136.125 -131.71875 C 132.851562 -131.71875 130.628906 -131.5 129.457031 -131.066406 C 130.296875 -131.375 131.019531 -131.839844 131.625 -132.460938 C 132.003906 -132.847656 132.28125 -133.226562 132.453125 -133.601562 C 132.34375 -133.363281 132.257812 -132.695312 132.199219 -131.601562 L 122.058594 -132.164062 L 132.214844 -132.179688 L 132.425781 10.15625 L 114.464844 10.15625 L 19.683594 -122.085938 L 27.9375 -128.003906 L 38.09375 -128.003906 L 38.09375 -13.277344 C 38.09375 -11.886719 38.167969 -11 38.3125 -10.617188 C 38.171875 -10.988281 37.917969 -11.378906 37.546875 -11.796875 C 36.90625 -12.519531 36.121094 -13.0625 35.1875 -13.425781 C 36.378906 -12.964844 38.652344 -12.730469 42.007812 -12.730469 L 52.164062 -12.730469 L 52.164062 10.15625 L 1.140625 10.15625 L 1.140625 -12.730469 L 11.292969 -12.730469 C 14.746094 -12.730469 17.023438 -12.953125 18.125 -13.390625 C 17.164062 -13.007812 16.363281 -12.441406 15.714844 -11.691406 C 15.359375 -11.273438 15.113281 -10.886719 14.980469 -10.527344 C 15.132812 -10.9375 15.207031 -11.851562 15.207031 -13.277344 L 15.207031 -131.570312 L 25.363281 -131.570312 L 16.65625 -126.34375 C 15.398438 -128.4375 14.085938 -129.777344 12.722656 -130.367188 C 10.636719 -131.269531 8.046875 -131.71875 4.953125 -131.71875 L -5.203125 -131.71875 L -5.203125 -154.605469 Z M 4.953125 -134.292969 L 4.953125 -144.449219 L 15.109375 -144.449219 L 15.109375 -141.871094 L 4.953125 -141.871094 L 4.953125 -152.027344 C 10.84375 -152.027344 16.113281 -151.023438 20.765625 -149.015625 C 26.136719 -146.699219 30.570312 -142.625 34.070312 -136.792969 L 35.519531 -134.382812 L 35.519531 -13.277344 C 35.519531 -3.410156 32.234375 2.839844 25.667969 5.464844 C 22.144531 6.875 17.355469 7.578125 11.292969 7.578125 L 11.292969 -2.574219 L 21.449219 -2.574219 L 21.449219 0 L 11.292969 0 L 11.292969 -10.15625 L 42.007812 -10.15625 L 42.007812 0 L 31.851562 0 L 31.851562 -2.574219 L 42.007812 -2.574219 L 42.007812 7.578125 C 36.113281 7.578125 31.386719 6.886719 27.824219 5.5 C 21.128906 2.898438 17.785156 -3.359375 17.785156 -13.277344 L 17.785156 -159.605469 L 127.933594 -5.914062 L 119.679688 0 L 119.679688 -10.15625 L 122.257812 -10.15625 L 122.257812 0 L 112.101562 0.015625 L 111.902344 -132.4375 L 111.917969 -132.726562 C 112.121094 -136.386719 112.8125 -139.5 113.992188 -142.070312 C 115.804688 -146.019531 118.601562 -148.699219 122.386719 -150.105469 C 125.839844 -151.386719 130.417969 -152.027344 136.125 -152.027344 L 136.125 -141.871094 L 125.972656 -141.871094 L 125.972656 -144.449219 L 136.125 -144.449219 L 136.125 -134.292969 L 105.613281 -134.292969 L 105.613281 -144.449219 L 115.765625 -144.449219 L 115.765625 -141.871094 L 105.613281 -141.871094 L 105.613281 -152.027344 C 111.539062 -152.027344 116.265625 -151.324219 119.785156 -149.914062 C 126.351562 -147.289062 129.636719 -141.046875 129.636719 -131.195312 L 129.902344 -5.753906 L 34.742188 -138.53125 L 42.996094 -144.449219 L 42.996094 -134.292969 Z M 4.953125 -134.292969 "/></g></g></g></g><g fill="#344e41" fill-opacity="1"><g transform="translate(7.630756, 157.150187)"><g><path d="M 4.953125 -144.4375 L 43 -144.4375 L 119.671875 -37.453125 L 119.484375 -131.171875 C 119.484375 -136.453125 118.328125 -139.554688 116.015625 -140.484375 C 113.703125 -141.410156 110.234375 -141.875 105.609375 -141.875 L 105.609375 -144.4375 L 136.125 -144.4375 L 136.125 -141.875 C 131.632812 -141.875 128.234375 -141.441406 125.921875 -140.578125 C 123.609375 -139.722656 122.316406 -136.914062 122.046875 -132.15625 L 122.25 0 L 119.671875 0 L 27.9375 -128 L 27.9375 -13.28125 C 27.9375 -7.988281 29.125 -4.878906 31.5 -3.953125 C 33.882812 -3.035156 37.382812 -2.578125 42 -2.578125 L 42 0 L 11.296875 0 L 11.296875 -2.578125 C 16.046875 -2.578125 19.578125 -3.035156 21.890625 -3.953125 C 24.203125 -4.878906 25.359375 -7.988281 25.359375 -13.28125 L 25.359375 -131.5625 C 22.984375 -135.53125 20.109375 -138.238281 16.734375 -139.6875 C 13.367188 -141.144531 9.441406 -141.875 4.953125 -141.875 Z M 4.953125 -144.4375 "/></g></g></g></g></g><g transform="matrix(1, 0, 0, 1, 117, 250)"><g clip-path="url(#45d268beca)"><g fill="#344e41" fill-opacity="1"><g transform="translate(0.631096, 17.573616)"><g><path d="M 2.546875 -8.828125 L 2.546875 0 L 1.328125 0 L 1.328125 -12.734375 L 8.046875 -3.171875 L 8.046875 -11.96875 L 9.28125 -11.96875 L 9.28125 0.734375 Z M 2.546875 -8.828125 "/></g></g></g><g fill="#344e41" fill-opacity="1"><g transform="translate(16.318495, 17.573616)"><g><path d="M 3.25 -4.40625 L 7.609375 -4.40625 L 5.4375 -9.921875 Z M 10.6875 0 L 9.34375 0 L 8.0625 -3.25 L 2.796875 -3.25 L 1.515625 0 L 0.171875 0 L 5.4375 -12.796875 Z M 10.6875 0 "/></g></g></g><g fill="#344e41" fill-opacity="1"><g transform="translate(32.2699, 17.573616)"><g><path d="M 2.546875 -8.828125 L 2.546875 0 L 1.328125 0 L 1.328125 -12.734375 L 8.046875 -3.171875 L 8.046875 -11.96875 L 9.28125 -11.96875 L 9.28125 0.734375 Z M 2.546875 -8.828125 "/></g></g></g><g fill="#344e41" fill-opacity="1"><g transform="translate(47.957299, 17.573616)"><g><path d="M 12.3125 -3.65625 C 11.863281 -2.507812 11.132812 -1.585938 10.125 -0.890625 C 9.101562 -0.179688 7.984375 0.171875 6.765625 0.171875 C 5.109375 0.171875 3.691406 -0.4375 2.515625 -1.65625 C 1.367188 -2.851562 0.796875 -4.289062 0.796875 -5.96875 C 0.796875 -6.800781 0.945312 -7.59375 1.25 -8.34375 C 1.550781 -9.082031 1.972656 -9.734375 2.515625 -10.296875 C 3.691406 -11.523438 5.109375 -12.140625 6.765625 -12.140625 C 7.984375 -12.140625 9.097656 -11.789062 10.109375 -11.09375 C 11.117188 -10.382812 11.847656 -9.460938 12.296875 -8.328125 L 10.9375 -8.328125 C 10.289062 -9.515625 9.328125 -10.300781 8.046875 -10.6875 C 7.617188 -10.800781 7.128906 -10.859375 6.578125 -10.859375 C 6.035156 -10.859375 5.472656 -10.734375 4.890625 -10.484375 C 4.316406 -10.210938 3.820312 -9.851562 3.40625 -9.40625 C 2.488281 -8.457031 2.03125 -7.3125 2.03125 -5.96875 C 2.03125 -4.644531 2.488281 -3.503906 3.40625 -2.546875 C 4.332031 -1.578125 5.453125 -1.09375 6.765625 -1.09375 C 7.648438 -1.09375 8.472656 -1.328125 9.234375 -1.796875 C 9.972656 -2.265625 10.546875 -2.882812 10.953125 -3.65625 Z M 12.3125 -3.65625 "/></g></g></g><g fill="#344e41" fill-opacity="1"><g transform="translate(65.880022, 17.573616)"><g><path d="M 5.953125 -5.640625 L 5.953125 0 L 4.71875 0 L 4.71875 -5.640625 L 0.171875 -11.96875 L 1.765625 -11.96875 L 5.328125 -6.84375 L 8.90625 -11.96875 L 10.484375 -11.96875 Z M 5.953125 -5.640625 "/></g></g></g><g fill="#344e41" fill-opacity="1"><g transform="translate(81.620214, 17.573616)"><g/></g></g><g fill="#344e41" fill-opacity="1"><g transform="translate(91.464083, 17.573616)"><g><path d="M 9.140625 -3.34375 C 9.140625 -2.851562 9.023438 -2.382812 8.796875 -1.9375 C 8.578125 -1.488281 8.28125 -1.125 7.90625 -0.84375 C 7.175781 -0.28125 6.203125 0 4.984375 0 L 1.328125 0 L 1.328125 -11.96875 L 4.5625 -11.96875 C 6.3125 -11.96875 7.453125 -11.429688 7.984375 -10.359375 C 8.171875 -9.960938 8.265625 -9.566406 8.265625 -9.171875 C 8.265625 -8.773438 8.234375 -8.460938 8.171875 -8.234375 C 8.097656 -8.003906 8.003906 -7.785156 7.890625 -7.578125 C 7.617188 -7.117188 7.269531 -6.796875 6.84375 -6.609375 C 7.550781 -6.421875 8.109375 -6.039062 8.515625 -5.46875 C 8.929688 -4.894531 9.140625 -4.1875 9.140625 -3.34375 Z M 7.03125 -8.984375 C 7.03125 -10.191406 6.207031 -10.796875 4.5625 -10.796875 L 2.546875 -10.796875 L 2.546875 -7.0625 L 4.90625 -7.0625 C 5.539062 -7.0625 6.050781 -7.21875 6.4375 -7.53125 C 6.832031 -7.851562 7.03125 -8.335938 7.03125 -8.984375 Z M 7.90625 -3.578125 C 7.90625 -3.929688 7.84375 -4.242188 7.71875 -4.515625 C 7.570312 -4.773438 7.394531 -5.007812 7.1875 -5.21875 C 6.71875 -5.625 6.164062 -5.828125 5.53125 -5.828125 L 2.546875 -5.828125 L 2.546875 -1.1875 L 5.328125 -1.1875 C 6.085938 -1.1875 6.707031 -1.398438 7.1875 -1.828125 C 7.664062 -2.273438 7.90625 -2.859375 7.90625 -3.578125 Z M 7.90625 -3.578125 "/></g></g></g><g fill="#344e41" fill-opacity="1"><g transform="translate(106.042607, 17.573616)"><g><path d="M 8.4375 0 L 1.328125 0 L 1.328125 -11.96875 L 8.4375 -11.96875 L 8.4375 -10.828125 L 2.546875 -10.828125 L 2.546875 -6.5625 L 8.265625 -6.5625 L 8.265625 -5.40625 L 2.546875 -5.40625 L 2.546875 -1.140625 L 8.4375 -1.140625 Z M 8.4375 0 "/></g></g></g><g fill="#344e41" fill-opacity="1"><g transform="translate(120.885151, 17.573616)"><g><path d="M 2.546875 -1.234375 L 6.828125 -1.234375 L 6.828125 0 L 1.328125 0 L 1.328125 -11.96875 L 2.546875 -11.96875 Z M 2.546875 -1.234375 "/></g></g></g><g fill="#344e41" fill-opacity="1"><g transform="translate(133.157956, 17.573616)"><g><path d="M 2.546875 -1.234375 L 6.828125 -1.234375 L 6.828125 0 L 1.328125 0 L 1.328125 -11.96875 L 2.546875 -11.96875 Z M 2.546875 -1.234375 "/></g></g></g></g></g></svg>